<svg xmlns="http://www.w3.org/2000/svg" width="54" height="45" viewBox="0 0 54 45"><g fill="none" fill-rule="evenodd"><path fill="#E5E3DE" d="M20.833 42.22a7.788 7.788 0 0 0 5.633 2.28 7.787 7.787 0 0 0 5.636-2.28l16.725-16.64c5.738-5.738 5.738-15.04 0-20.779-5.735-5.735-15.038-5.735-20.773 0l-1.488 1.466L25.095 4.8C19.36-.934 10.057-.934 4.32 4.801c-5.738 5.739-5.738 15.039 0 20.777L20.833 42.22z"/><path stroke="#FF0" stroke-linecap="round" stroke-width="2" d="M22.578 28.265s2.205 2 4.41 2c2.204 0 4.408-2 4.408-2"/><circle cx="21" cy="19" r="2" fill="#FFF"/><circle cx="33" cy="19" r="2" fill="#FFF"/></g></svg>