<svg xmlns="http://www.w3.org/2000/svg" width="26" height="22" viewBox="0 0 20 17"><path fill="#f1592a" fill-rule="evenodd" d="M8.548 15.006l-.003-.003a1.95 1.95 0 0 0 1.428.565 1.933 1.933 0 0 0 1.403-.567l6.296-6.264a4.533 4.533 0 1 0-6.413-6.405l-.56.552-.706.695-.702-.7-.555-.552A4.532 4.532 0 1 0 2.33 8.739l6.218 6.267zm-.71.704L1.621 9.443A5.531 5.531 0 1 1 9.443 1.62l.554.551.56-.551a5.532 5.532 0 0 1 7.822 7.824l-6.298 6.266a2.932 2.932 0 0 1-2.122.858 2.933 2.933 0 0 1-2.12-.858z"/></svg>