<?xml version="1.0" encoding="utf-8"?><svg width="484.82" height="4861" viewBox="0 0 484.82 4861" xmlns="http://www.w3.org/2000/svg" xmlns:xlink="http://www.w3.org/1999/xlink"><svg width="464.82" height="464.82" viewBox="-10 -10 464.82 464.82" id="ico-arrow-down" xmlns="http://www.w3.org/2000/svg"><path d="M434.252 114.203l-21.409-21.416c-7.419-7.04-16.084-10.561-25.975-10.561-10.095 0-18.657 3.521-25.7 10.561L222.41 231.549 83.653 92.791c-7.042-7.04-15.606-10.561-25.697-10.561-9.896 0-18.559 3.521-25.979 10.561l-21.128 21.416C3.615 121.436 0 130.099 0 140.188c0 10.277 3.619 18.842 10.848 25.693l185.864 185.865c6.855 7.23 15.416 10.848 25.697 10.848 10.088 0 18.75-3.617 25.977-10.848l185.865-185.865c7.043-7.044 10.567-15.608 10.567-25.693.001-9.901-3.523-18.559-10.566-25.985z"/></svg><svg width="359.18" height="359.18" viewBox="-10 -10 359.18 359.18" id="ico-close" y="465" xmlns="http://www.w3.org/2000/svg"><path d="M247.244 169.59l83.938-83.938c5.332-5.327 7.994-11.798 7.994-19.414 0-7.614-2.669-14.084-7.994-19.414L292.355 7.993C287.026 2.665 280.556 0 272.944 0c-7.617 0-14.085 2.665-19.417 7.993L169.59 91.931 85.651 7.993C80.325 2.665 73.854 0 66.237 0c-7.611 0-14.083 2.665-19.414 7.993L7.994 46.824C2.667 52.15 0 58.624 0 66.238c0 7.616 2.664 14.084 7.994 19.414l83.937 83.938-83.937 83.938C2.667 258.859 0 265.327 0 272.945c0 7.61 2.664 14.082 7.994 19.41l38.83 38.828c5.33 5.332 11.803 7.994 19.414 7.994 7.616 0 14.084-2.669 19.414-7.994l83.939-83.938 83.944 83.938c5.328 5.332 11.793 7.994 19.417 7.994 7.611 0 14.082-2.669 19.411-7.994l38.82-38.828c5.332-5.324 7.994-11.8 7.994-19.41 0-7.618-2.662-14.086-7.994-19.417l-83.939-83.938z"/></svg><svg width="462.53" height="462.53" viewBox="-10 -10 462.53 462.53" id="ico-correct" y="825" xmlns="http://www.w3.org/2000/svg"><path d="M434.539 98.499l-38.828-38.828c-5.324-5.328-11.799-7.993-19.41-7.993-7.618 0-14.093 2.665-19.417 7.993L169.59 247.248l-83.939-84.225c-5.33-5.33-11.801-7.992-19.412-7.992-7.616 0-14.087 2.662-19.417 7.992L7.994 201.852C2.664 207.181 0 213.654 0 221.269c0 7.609 2.664 14.088 7.994 19.416l103.351 103.349 38.831 38.828c5.327 5.332 11.8 7.994 19.414 7.994 7.611 0 14.084-2.669 19.414-7.994l38.83-38.828L434.539 137.33c5.325-5.33 7.994-11.802 7.994-19.417.004-7.611-2.669-14.084-7.994-19.414z"/></svg><svg width="74" height="65" viewBox="-10 -10 74 65" id="ico-favorite-heart" y="1288" xmlns="http://www.w3.org/2000/svg"><g fill="none" fill-rule="evenodd"><path fill="#E5E3DE" d="M20.833 42.22a7.788 7.788 0 0 0 5.633 2.28 7.787 7.787 0 0 0 5.636-2.28l16.725-16.64c5.738-5.738 5.738-15.04 0-20.779-5.735-5.735-15.038-5.735-20.773 0l-1.488 1.466L25.095 4.8C19.36-.934 10.057-.934 4.32 4.801c-5.738 5.739-5.738 15.039 0 20.777L20.833 42.22z"/><path stroke="#FF0" stroke-linecap="round" stroke-width="2" d="M22.578 28.265s2.205 2 4.41 2c2.204 0 4.408-2 4.408-2"/><circle cx="21" cy="19" r="2" fill="#FFF"/><circle cx="33" cy="19" r="2" fill="#FFF"/></g></svg><svg width="46" height="42" viewBox="-10 -10 40 37" id="ico-heart" y="1353" xmlns="http://www.w3.org/2000/svg"><path fill="#f1592a" fill-rule="evenodd" d="M8.548 15.006l-.003-.003a1.95 1.95 0 0 0 1.428.565 1.933 1.933 0 0 0 1.403-.567l6.296-6.264a4.533 4.533 0 1 0-6.413-6.405l-.56.552-.706.695-.702-.7-.555-.552A4.532 4.532 0 1 0 2.33 8.739l6.218 6.267zm-.71.704L1.621 9.443A5.531 5.531 0 1 1 9.443 1.62l.554.551.56-.551a5.532 5.532 0 0 1 7.822 7.824l-6.298 6.266a2.932 2.932 0 0 1-2.122.858 2.933 2.933 0 0 1-2.12-.858z"/></svg><svg width="421.99" height="421.99" viewBox="-10 -10 421.99 421.99" id="ico-minus" y="1395" xmlns="http://www.w3.org/2000/svg"><path d="M394 154.174c-5.331-5.33-11.806-7.995-19.417-7.995H27.406c-7.611 0-14.084 2.665-19.414 7.995C2.662 159.503 0 165.972 0 173.587v54.82c0 7.617 2.662 14.086 7.992 19.41 5.33 5.332 11.803 7.994 19.414 7.994h347.176c7.611 0 14.086-2.662 19.417-7.994 5.325-5.324 7.991-11.793 7.991-19.41v-54.82c.001-7.615-2.658-14.087-7.99-19.413z"/></svg><svg width="463.31" height="463.31" viewBox="-10 -10 463.31 463.31" id="ico-play" y="1817" xmlns="http://www.w3.org/2000/svg"><path d="M415.934 212.799L36.788 2.097C32.411-.377 28.65-.661 25.51 1.242c-3.14 1.902-4.708 5.328-4.708 10.276V431.78c0 4.952 1.569 8.381 4.708 10.284 3.14 1.902 6.901 1.622 11.278-.855l379.146-210.703c4.381-2.478 6.571-5.434 6.571-8.856 0-3.426-2.191-6.376-6.571-8.851z"/></svg><svg width="421.99" height="421.99" viewBox="-10 -10 421.99 421.99" id="ico-plus" y="2281" xmlns="http://www.w3.org/2000/svg"><path d="M394 154.175c-5.331-5.33-11.806-7.994-19.417-7.994H255.811V27.406c0-7.611-2.666-14.084-7.994-19.414C242.488 2.666 236.02 0 228.398 0h-54.812c-7.612 0-14.084 2.663-19.414 7.993-5.33 5.33-7.994 11.803-7.994 19.414v118.775H27.407c-7.611 0-14.084 2.664-19.414 7.994S0 165.973 0 173.589v54.819c0 7.618 2.662 14.086 7.992 19.411 5.33 5.332 11.803 7.994 19.414 7.994h118.771V374.59c0 7.611 2.664 14.089 7.994 19.417 5.33 5.325 11.802 7.987 19.414 7.987h54.816c7.617 0 14.086-2.662 19.417-7.987 5.332-5.331 7.994-11.806 7.994-19.417V255.813h118.77c7.618 0 14.089-2.662 19.417-7.994 5.329-5.325 7.994-11.793 7.994-19.411v-54.819c-.002-7.616-2.661-14.087-7.993-19.414z"/></svg><svg width="50" height="50" viewBox="-10 -10 50 50" id="search" y="2703" xmlns="http://www.w3.org/2000/svg"><path d="M13 3C7.489 3 3 7.489 3 13s4.489 10 10 10a9.947 9.947 0 0 0 6.322-2.264l5.971 5.971a1 1 0 1 0 1.414-1.414l-5.97-5.97A9.947 9.947 0 0 0 23 13c0-5.511-4.489-10-10-10zm0 2c4.43 0 8 3.57 8 8s-3.57 8-8 8-8-3.57-8-8 3.57-8 8-8z" font-family="sans-serif" font-weight="400" overflow="visible" style="line-height:normal;text-indent:0;text-align:start;text-decoration-line:none;text-decoration-style:solid;text-decoration-color:#000;text-transform:none;block-progression:tb;isolation:auto;mix-blend-mode:normal"/></svg><svg viewBox="-10 -10 228.96 228.96" width="228.96" height="228.96" id="shopping-bag" y="2753" xmlns="http://www.w3.org/2000/svg"><path d="M190.85 200.227L178.135 58.626a7.5 7.5 0 0 0-7.47-6.829h-26.221V39.971c0-22.04-17.93-39.971-39.969-39.971-22.038 0-39.966 17.931-39.966 39.971v11.826H38.27a7.5 7.5 0 0 0-7.47 6.829L18.035 200.784a7.5 7.5 0 0 0 7.47 8.17h157.946a7.5 7.5 0 0 0 7.399-8.727zM79.509 39.971c0-13.769 11.2-24.971 24.967-24.971 13.768 0 24.969 11.202 24.969 24.971v11.826H79.509V39.971zm-45.8 153.984L45.127 66.797h19.382v13.412a7.5 7.5 0 0 0 7.5 7.5 7.5 7.5 0 0 0 7.5-7.5V66.797h49.936v13.412a7.5 7.5 0 0 0 7.5 7.5 7.5 7.5 0 0 0 7.5-7.5V66.797h19.364l11.418 127.158H33.709z"/></svg><svg width="484.82" height="1879" viewBox="-10 -10 484.82 1879" id="sprite" y="2982" xmlns="http://www.w3.org/2000/svg"><svg width="464.82" height="464.82" viewBox="-10 -10 464.82 464.82"><path d="M434.252 114.203l-21.409-21.416c-7.419-7.04-16.084-10.561-25.975-10.561-10.095 0-18.657 3.521-25.7 10.561L222.41 231.549 83.653 92.791c-7.042-7.04-15.606-10.561-25.697-10.561-9.896 0-18.559 3.521-25.979 10.561l-21.128 21.416C3.615 121.436 0 130.099 0 140.188c0 10.277 3.619 18.842 10.848 25.693l185.864 185.865c6.855 7.23 15.416 10.848 25.697 10.848 10.088 0 18.75-3.617 25.977-10.848l185.865-185.865c7.043-7.044 10.567-15.608 10.567-25.693.001-9.901-3.523-18.559-10.566-25.985z"/></svg><svg width="359.18" height="359.18" y="465" viewBox="-10 -10 359.18 359.18"><path d="M247.244 169.59l83.938-83.938c5.332-5.327 7.994-11.798 7.994-19.414 0-7.614-2.669-14.084-7.994-19.414L292.355 7.993C287.026 2.665 280.556 0 272.944 0c-7.617 0-14.085 2.665-19.417 7.993L169.59 91.931 85.651 7.993C80.325 2.665 73.854 0 66.237 0c-7.611 0-14.083 2.665-19.414 7.993L7.994 46.824C2.667 52.15 0 58.624 0 66.238c0 7.616 2.664 14.084 7.994 19.414l83.937 83.938-83.937 83.938C2.667 258.859 0 265.327 0 272.945c0 7.61 2.664 14.082 7.994 19.41l38.83 38.828c5.33 5.332 11.803 7.994 19.414 7.994 7.616 0 14.084-2.669 19.414-7.994l83.939-83.938 83.944 83.938c5.328 5.332 11.793 7.994 19.417 7.994 7.611 0 14.082-2.669 19.411-7.994l38.82-38.828c5.332-5.324 7.994-11.8 7.994-19.41 0-7.618-2.662-14.086-7.994-19.417l-83.939-83.938z"/></svg><svg width="462.53" height="462.53" y="825" viewBox="-10 -10 462.53 462.53"><path fill="#fff" d="M434.539 98.499l-38.828-38.828c-5.324-5.328-11.799-7.993-19.41-7.993-7.618 0-14.093 2.665-19.417 7.993L169.59 247.248l-83.939-84.225c-5.33-5.33-11.801-7.992-19.412-7.992-7.616 0-14.087 2.662-19.417 7.992L7.994 201.852C2.664 207.181 0 213.654 0 221.269c0 7.609 2.664 14.088 7.994 19.416l103.351 103.349 38.831 38.828c5.327 5.332 11.8 7.994 19.414 7.994 7.611 0 14.084-2.669 19.414-7.994l38.83-38.828L434.539 137.33c5.325-5.33 7.994-11.802 7.994-19.417.004-7.611-2.669-14.084-7.994-19.414z"/></svg><svg width="74" height="65" y="1288" viewBox="-10 -10 74 65"><g fill="none" fill-rule="evenodd"><path fill="#E5E3DE" d="M20.833 42.22a7.788 7.788 0 0 0 5.633 2.28 7.787 7.787 0 0 0 5.636-2.28l16.725-16.64c5.738-5.738 5.738-15.04 0-20.779-5.735-5.735-15.038-5.735-20.773 0l-1.488 1.466L25.095 4.8C19.36-.934 10.057-.934 4.32 4.801c-5.738 5.739-5.738 15.039 0 20.777L20.833 42.22z"/><path stroke="#FF0" stroke-linecap="round" stroke-width="2" d="M22.578 28.265s2.205 2 4.41 2c2.204 0 4.408-2 4.408-2"/><circle cx="21" cy="19" r="2" fill="#FFF"/><circle cx="33" cy="19" r="2" fill="#FFF"/></g></svg><svg width="46" height="42" y="1353" viewBox="-10 -10 40 37"><path fill="#f1592a" fill-rule="evenodd" d="M8.548 15.006l-.003-.003a1.95 1.95 0 0 0 1.428.565 1.933 1.933 0 0 0 1.403-.567l6.296-6.264a4.533 4.533 0 1 0-6.413-6.405l-.56.552-.706.695-.702-.7-.555-.552A4.532 4.532 0 1 0 2.33 8.739l6.218 6.267zm-.71.704L1.621 9.443A5.531 5.531 0 1 1 9.443 1.62l.554.551.56-.551a5.532 5.532 0 0 1 7.822 7.824l-6.298 6.266a2.932 2.932 0 0 1-2.122.858 2.933 2.933 0 0 1-2.12-.858z"/></svg><svg width="463.31" height="463.31" y="1395" viewBox="-10 -10 463.31 463.31"><path d="M415.934 212.799L36.788 2.097C32.411-.377 28.65-.661 25.51 1.242c-3.14 1.902-4.708 5.328-4.708 10.276V431.78c0 4.952 1.569 8.381 4.708 10.284 3.14 1.902 6.901 1.622 11.278-.855l379.146-210.703c4.381-2.478 6.571-5.434 6.571-8.856 0-3.426-2.191-6.376-6.571-8.851z"/></svg></svg></svg>